<svg xmlns="http://www.w3.org/2000/svg" width="95.833" height="60.848" viewBox="0 0 95.833 60.848">
    <path fill="#267ae9" d="M82.882 119.024a10.941 10.941 0 1 0-12.553 0 18.957 18.957 0 0 0-6.466 3.792 24.53 24.53 0 0 0-8.874-4.835 13.861 13.861 0 1 0-14.335 0 24.734 24.734 0 0 0-8.779 4.778 19.111 19.111 0 0 0-6.39-3.717 10.941 10.941 0 1 0-12.553 0A19.2 19.2 0 0 0 0 137.189v1.251a.082.082 0 0 0 .076.076h23.19a25.5 25.5 0 0 0-.209 3.2v1.289A10.083 10.083 0 0 0 33.145 153.1h29.391a10.083 10.083 0 0 0 10.088-10.088v-1.289a25.5 25.5 0 0 0-.209-3.2h23.342a.082.082 0 0 0 .076-.076v-1.251a19.279 19.279 0 0 0-12.951-18.172zM68.7 110.055a7.907 7.907 0 1 1 8.059 7.907h-.3a7.9 7.9 0 0 1-7.759-7.907zm-31.742-3.944a10.827 10.827 0 1 1 11.453 10.808h-1.253a10.843 10.843 0 0 1-10.201-10.808zm-25.712 3.944a7.907 7.907 0 1 1 8.059 7.907H19a7.908 7.908 0 0 1-7.756-7.907zM23.8 135.464H3.072A16.2 16.2 0 0 1 19.038 121h.228a16.033 16.033 0 0 1 10.334 3.845 24.9 24.9 0 0 0-5.8 10.619zm45.755 7.547a7.065 7.065 0 0 1-7.054 7.054H33.107a7.065 7.065 0 0 1-7.054-7.054v-1.289a21.782 21.782 0 0 1 21.1-21.749c.209.019.436.019.645.019s.436 0 .645-.019a21.782 21.782 0 0 1 21.1 21.749zm2.256-7.547a24.831 24.831 0 0 0-5.745-10.543A16.11 16.11 0 0 1 76.492 121h.228a16.2 16.2 0 0 1 15.966 14.468z" transform="translate(0 -92.25)"/>
</svg>
