<svg xmlns="http://www.w3.org/2000/svg" width="54.686" height="36.458" viewBox="0 0 54.686 36.458">
    <g>
        <g>
            <path fill="#267ae9" d="M51.882 85.333H2.8a2.813 2.813 0 0 0-2.8 2.8v30.849a2.813 2.813 0 0 0 2.8 2.8h49.082a2.813 2.813 0 0 0 2.8-2.8V88.137a2.813 2.813 0 0 0-2.8-2.804zm-1.052 2.1l-21.874 16.409a2.932 2.932 0 0 1-3.227 0L3.857 87.436zm-11.685 17.492l11.919 14.723c.012.015.027.026.039.039H3.583c.013-.014.027-.025.039-.039l11.919-14.723a1.052 1.052 0 0 0-1.635-1.324L2.1 118.18V88.751l22.365 16.774a5.02 5.02 0 0 0 5.749 0l22.368-16.774v29.429L40.78 103.6a1.052 1.052 0 0 0-1.635 1.324z" transform="translate(0 -85.333) translate(0 85.333) translate(0 -85.333)"/>
        </g>
    </g>
</svg>
