<svg xmlns="http://www.w3.org/2000/svg" width="44.498" height="44.563"  viewBox="0 0 44.498 44.563">
    <defs>
        <style>
            .cls-1{fill:#267ae9 }
        </style>
    </defs>
    <g id="phone-call" transform="translate(-0.344 0)">
        <g id="Group_544" transform="translate(0.344 0)">
            <path  id="Path_188" d="M35.531 52.433a4.383 4.383 0 0 0-3.179-1.458 4.532 4.532 0 0 0-3.217 1.448l-2.972 2.963c-.245-.132-.489-.254-.724-.376-.339-.169-.658-.329-.931-.5a32.3 32.3 0 0 1-7.741-7.054 19.057 19.057 0 0 1-2.539-4.007c.771-.705 1.486-1.439 2.182-2.144.263-.263.527-.536.79-.8a4.315 4.315 0 0 0 0-6.505l-2.568-2.568c-.292-.292-.593-.593-.875-.894-.564-.583-1.157-1.185-1.768-1.749a4.452 4.452 0 0 0-3.151-1.383 4.607 4.607 0 0 0-3.2 1.383l-.019.019-3.2 3.226a6.881 6.881 0 0 0-2.036 4.373 16.488 16.488 0 0 0 1.2 6.979 40.5 40.5 0 0 0 7.2 12A44.26 44.26 0 0 0 23.52 66.927a22.962 22.962 0 0 0 8.28 2.445c.2.009.4.019.593.019a7.087 7.087 0 0 0 5.427-2.333c.009-.019.028-.028.038-.047a21.381 21.381 0 0 1 1.646-1.7c.4-.386.818-.79 1.223-1.213a4.692 4.692 0 0 0 1.42-3.254 4.52 4.52 0 0 0-1.448-3.226zm3.367 9.9c-.009 0-.009.009 0 0-.367.4-.743.752-1.147 1.147a24.734 24.734 0 0 0-1.815 1.881 4.534 4.534 0 0 1-3.536 1.5c-.141 0-.292 0-.433-.009a20.4 20.4 0 0 1-7.336-2.2 41.779 41.779 0 0 1-13.883-10.874A38.184 38.184 0 0 1 3.976 42.5a13.429 13.429 0 0 1-1.053-5.888 4.318 4.318 0 0 1 1.3-2.793l3.207-3.207a2.138 2.138 0 0 1 1.43-.668 2.012 2.012 0 0 1 1.373.658l.028.028c.574.536 1.119 1.091 1.693 1.684.292.3.593.6.894.912l2.565 2.574a1.8 1.8 0 0 1 0 2.916c-.273.273-.536.546-.809.809-.79.809-1.542 1.561-2.361 2.295-.019.019-.038.028-.047.047A1.918 1.918 0 0 0 11.707 44l.028.085a20.614 20.614 0 0 0 3.038 4.957l.009.009a34.521 34.521 0 0 0 8.352 7.6 12.839 12.839 0 0 0 1.157.63c.339.169.658.329.931.5.038.019.075.047.113.066a2.039 2.039 0 0 0 .931.235 2.011 2.011 0 0 0 1.43-.649l3.217-3.217a2.128 2.128 0 0 1 1.42-.705 1.916 1.916 0 0 1 1.354.687l.019.019 5.182 5.182a1.86 1.86 0 0 1 .012 2.938z" class="cls-1" transform="translate(-0.344 -24.828)"/>
            <path  id="Path_189" d="M245.989 88.444a12.1 12.1 0 0 1 9.857 9.857 1.262 1.262 0 0 0 1.251 1.053 1.679 1.679 0 0 0 .216-.019 1.271 1.271 0 0 0 1.044-1.467 14.636 14.636 0 0 0-11.926-11.926 1.276 1.276 0 0 0-1.467 1.035 1.256 1.256 0 0 0 1.025 1.467z" class="cls-1" transform="translate(-221.938 -77.844)"/>
            <path  id="Path_190" d="M269.888 19.658A24.1 24.1 0 0 0 250.25.02a1.268 1.268 0 1 0-.414 2.5 21.527 21.527 0 0 1 17.55 17.55 1.262 1.262 0 0 0 1.251 1.053 1.679 1.679 0 0 0 .216-.019 1.246 1.246 0 0 0 1.035-1.446z" class="cls-1" transform="translate(-225.41 0)"/>
        </g>
    </g>
</svg>
