<svg xmlns="http://www.w3.org/2000/svg" width="82.902" height="90.175" viewBox="0 0 82.902 90.175">
    <defs>
        <style>
            .cls-1{fill:#267ae9}
        </style>
    </defs>
    <g id="research-and-development" transform="translate(0)">
        <path id="Path_204" d="M25.454 71.271A1.454 1.454 0 0 0 24 72.725v5.818A1.454 1.454 0 0 0 25.454 80h3.171a19.852 19.852 0 0 0 2.243 5.619l-3.533 3.531a1.454 1.454 0 0 0 0 2.057L31.7 95.57a1.454 1.454 0 0 0 2.057 0l3.534-3.534a19.852 19.852 0 0 0 5.619 2.243V98.9a1.454 1.454 0 0 0 1.454 1.454h5.1a23.26 23.26 0 0 0 35.606 13.425l14.384 14.391a4.363 4.363 0 1 0 6.17-6.17l-14.385-14.387a23.23 23.23 0 0 0-3.869-30.524h2.079a1.454 1.454 0 0 0 1.451-1.455v-5.552c.287-.76 4.363-11.587 4.363-11.9a10.184 10.184 0 0 0-2.681-7.5A10.183 10.183 0 0 0 85.086 48a10.184 10.184 0 0 0-7.5 2.68 10.183 10.183 0 0 0-2.681 7.5c0 .174 4.363 11.9 4.363 11.9v2.356A23.18 23.18 0 0 0 72 71.271h-6.08a19.852 19.852 0 0 0-2.243-5.619l3.534-3.534a1.454 1.454 0 0 0 0-2.057L62.844 55.7a1.454 1.454 0 0 0-2.057 0l-3.534 3.534a19.852 19.852 0 0 0-5.619-2.243v-4.628a1.454 1.454 0 0 0-1.454-1.454h-5.818a1.454 1.454 0 0 0-1.454 1.454v4.626a19.852 19.852 0 0 0-5.619 2.243L33.755 55.7a1.454 1.454 0 0 0-2.057 0l-4.363 4.363a1.454 1.454 0 0 0 0 2.057l3.534 3.534a19.852 19.852 0 0 0-2.243 5.619zm78.113 52.786a1.454 1.454 0 1 1-2.057 2.057l-14.128-14.13a23.48 23.48 0 0 0 2.057-2.057zM77.816 57.924c.086-4.655 2.531-7.015 7.27-7.015s7.19 2.365 7.27 7.032c-.409 1.123-2.4 6.4-3.912 10.422H81.73zm4.361 13.347h5.818v2.909h-4.744q-.529-.293-1.074-.561zm10.181 23.271A20.362 20.362 0 1 1 71.982 74.18H72a20.385 20.385 0 0 1 20.358 20.362zM47.271 82.906a7.272 7.272 0 1 1 7.272-7.272 7.272 7.272 0 0 1-7.272 7.272zm-16.019-9.941a16.908 16.908 0 0 1 2.667-6.679 1.454 1.454 0 0 0-.164-1.861L30.42 61.09l2.307-2.307 3.335 3.335a1.454 1.454 0 0 0 1.861.164 16.908 16.908 0 0 1 6.677-2.667 1.454 1.454 0 0 0 1.215-1.434v-4.363h2.909v4.363a1.454 1.454 0 0 0 1.215 1.435 16.908 16.908 0 0 1 6.679 2.667 1.454 1.454 0 0 0 1.861-.164l3.335-3.335 2.307 2.307-3.335 3.335a1.454 1.454 0 0 0-.164 1.861 16.908 16.908 0 0 1 2.666 6.675 23.291 23.291 0 0 0-5.87 3.454c.02-.259.033-.519.033-.783a10.185 10.185 0 1 0-6.779 9.595 23.136 23.136 0 0 0-1.947 9.314 23.406 23.406 0 0 0 .181 2.905h-3.09v-4.36a1.454 1.454 0 0 0-1.216-1.434 16.907 16.907 0 0 1-6.679-2.667 1.454 1.454 0 0 0-1.861.164l-3.335 3.335-2.305-2.307 3.335-3.335a1.454 1.454 0 0 0 .164-1.861 16.908 16.908 0 0 1-2.667-6.682 1.454 1.454 0 0 0-1.434-1.215h-2.909V74.18h2.909a1.454 1.454 0 0 0 1.435-1.215z" class="cls-1" transform="translate(-24 -39.273)"/>
        <path id="Path_205" d="M272.152 40.8a1.454 1.454 0 0 0 .65 1.951l2.909 1.454a1.454 1.454 0 0 0 1.3-2.6l-2.911-1.453a1.454 1.454 0 0 0-1.948.648z" class="cls-1" transform="translate(-226.911 -32.727)"/>
        <path id="Path_206" d="M352 1.454v2.909a1.454 1.454 0 0 0 2.909 0V1.454a1.454 1.454 0 0 0-2.909 0z" class="cls-1" transform="translate(-292.368)"/>
        <path id="Path_207" d="M304.8 8.152a1.454 1.454 0 0 0-.65 1.951l1.454 2.909a1.454 1.454 0 1 0 2.6-1.3l-1.45-2.912a1.454 1.454 0 0 0-1.951-.65z" class="cls-1" transform="translate(-253.094 -6.544)"/>
        <path id="Path_208" d="M393.607 8.8l-1.454 2.909a1.454 1.454 0 1 0 2.6 1.3l1.454-2.909a1.454 1.454 0 1 0-2.6-1.3z" class="cls-1" transform="translate(-325.095 -6.544)"/>
        <path id="Path_209" d="M419.711 40.152l-2.911 1.455a1.454 1.454 0 0 0 1.3 2.6l2.909-1.454a1.454 1.454 0 1 0-1.3-2.6z" class="cls-1" transform="translate(-344.732 -32.726)"/>
        <path id="Path_210" d="M192 225.453A17.453 17.453 0 1 0 209.453 208 17.453 17.453 0 0 0 192 225.453zm32 0a14.544 14.544 0 1 1-14.544-14.544A14.544 14.544 0 0 1 224 225.453z" class="cls-1" transform="translate(-161.457 -170.185)"/>
        <path id="Path_211" d="M226.909 297.454a1.454 1.454 0 0 0-2.909 0 11.648 11.648 0 0 0 11.635 11.635 1.454 1.454 0 1 0 0-2.909 8.736 8.736 0 0 1-8.726-8.726z" class="cls-1" transform="translate(-187.639 -242.186)"/>
    </g>
</svg>
