<svg xmlns="http://www.w3.org/2000/svg" width="77.566" height="77.566" viewBox="0 0 77.566 77.566">
    <path fill="#267ae9" d="M77.566 32.528h-2.811l-4.19 2.2a6.219 6.219 0 0 0-1.491-.613L63.8 32.8v-.6a8.786 8.786 0 0 0 3.754-7.18v-2.186a8.989 8.989 0 0 0-8.489-9.069c-.238-.006-.472 0-.707.014l1.367-3.2L53.1 3.957 49.2 6.5a21.162 21.162 0 0 0-4.683-1.943L43.551 0h-9.535l-.965 4.558A21.137 21.137 0 0 0 28.369 6.5l-3.906-2.542-6.619 6.619 1.343 3.2c-.051 0-.1-.012-.151-.013a8.761 8.761 0 0 0-9.027 8.753v2.5a8.782 8.782 0 0 0 3.753 7.183v.6l-3.438.86-6.232-3.634H0v25.923l12.308 4.1h2.4L15 59l3.773 2.265a3.9 3.9 0 0 0 3.756 3.774 3.9 3.9 0 0 0 3.753 3.753 3.9 3.9 0 0 0 3.753 3.753 3.891 3.891 0 0 0 6.084 3.089l1.108.979a3.809 3.809 0 0 0 2.517.951h.232a3.809 3.809 0 0 0 3.8-3.758 3.805 3.805 0 0 0 3.753-3.753 3.805 3.805 0 0 0 3.76-3.753 3.847 3.847 0 0 0 3.758-3.839 3.663 3.663 0 0 0-.019-.375l22.538-11.27zm-12.511-9.694v2.187a6.28 6.28 0 0 1-3.131 5.414l-.624.365v3.959l6.25 1.561-13.75 7.238v-3.37a6.225 6.225 0 0 0-1.8-4.36l4.3-1.072v-3.963l-.624-.361a6.273 6.273 0 0 1-3.129-5.411v-2.5a6.255 6.255 0 0 1 6.449-6.252 6.468 6.468 0 0 1 6.062 6.567zM40.669 42.575l-5.663-1.81a15.45 15.45 0 0 0-8.016-.365l-.717.159v-.37a3.75 3.75 0 0 1 2.842-3.642l7.166-1.79v-3.964l-.624-.361a6.273 6.273 0 0 1-3.129-5.411v-2.5a6.255 6.255 0 0 1 6.449-6.252 6.468 6.468 0 0 1 6.062 6.567v2.187a6.28 6.28 0 0 1-3.131 5.414l-.626.362v3.959l7.165 1.79a3.75 3.75 0 0 1 2.842 3.642v4.688l-.309.162h-.767l-7.692-2.2a7.886 7.886 0 0 0-1.857-.266zM26.553 18.724a13.752 13.752 0 0 1 24.409-.1 8.7 8.7 0 0 0-.919 3.9v2.5A8.782 8.782 0 0 0 53.8 32.2v.6l-5 1.253-5.014-1.253v-.6a8.786 8.786 0 0 0 3.754-7.18v-2.186a8.989 8.989 0 0 0-8.489-9.069 8.759 8.759 0 0 0-9.026 8.754v2.5a8.782 8.782 0 0 0 3.754 7.181v.6l-5 1.253-5.01-1.253v-.6a8.786 8.786 0 0 0 3.754-7.18v-2.186a9.221 9.221 0 0 0-.971-4.11zM20.8 11.158l4-4 3.518 2.29.673-.413A18.669 18.669 0 0 1 34.4 6.791l.77-.184.87-4.1h5.478l.868 4.1.77.184a18.687 18.687 0 0 1 5.417 2.247l.673.413 3.518-2.29 3.992 3.993-1.419 3.323a8.745 8.745 0 0 0-2.637 1.754c-.051.05-.1.1-.145.155a16.247 16.247 0 0 0-27.593.075A8.824 8.824 0 0 0 22.2 14.5zm-4.535 23.6v-3.965l-.624-.361a6.273 6.273 0 0 1-3.129-5.411v-2.5a6.255 6.255 0 0 1 6.449-6.252 6.468 6.468 0 0 1 6.062 6.567v2.187a6.28 6.28 0 0 1-3.131 5.414l-.626.362v3.959l4.293 1.073a6.225 6.225 0 0 0-1.792 4.36v.927l-3.9.867.1-.354.048-2.312-6.6-3.849zM2.5 32.528h.912l9 5.248-4.541 18.159-5.371-1.79zm10.213 25.021l-2.462-.82 4.41-17.64 2.853 1.664v.357l-4.7 16.439zm8.555 3.6a1.412 1.412 0 0 1 .411-.992l2.2-2.2a1.4 1.4 0 0 1 1.984 1.984l-2.2 2.2a1.4 1.4 0 0 1-2.395-.992zm3.753 3.751a1.412 1.412 0 0 1 .411-.992l2.2-2.2a1.4 1.4 0 0 1 1.983 1.992l-2.2 2.2a1.4 1.4 0 0 1-2.395-.992zm3.753 3.753a1.412 1.412 0 0 1 .411-.992l2.2-2.2a1.4 1.4 0 0 1 1.984 1.984l-2.2 2.2a1.4 1.4 0 0 1-2.395-.992zm5.156 5.156a1.4 1.4 0 0 1-.992-2.395l2.2-2.2a1.4 1.4 0 0 1 1.983 1.986l-2.2 2.2a1.412 1.412 0 0 1-.991.413zm6.05 1.251h-.232a1.3 1.3 0 0 1-.862-.327l-.936-.825.94-.94a3.89 3.89 0 0 0 .788-1.162l1.137.947a1.305 1.305 0 0 1-.836 2.307zM51.2 63.8h-.216a1.342 1.342 0 0 1-.861-.313l-6.784-5.654-1.6 1.923 6.588 5.489a1.306 1.306 0 0 1-.837 2.307h-.273a1.3 1.3 0 0 1-.834-.3l-6.8-5.662-1.6 1.923 6.588 5.49a1.3 1.3 0 0 1-.836 2.305 2.066 2.066 0 0 1-1.316-.476l-2.792-2.327a3.892 3.892 0 0 0-3.359-2.186 3.9 3.9 0 0 0-3.753-3.753 3.9 3.9 0 0 0-3.753-3.753 3.9 3.9 0 0 0-6.651-2.624l-2.2 2.2a3.855 3.855 0 0 0-.351.428l-3.843-2.306 3.369-11.791 8.446-1.878a12.888 12.888 0 0 1 6.712.3l1.843.589-6.249 3.129a4.17 4.17 0 0 0-2.315 3.748v.247a4.19 4.19 0 0 0 6.347 3.593l4.659-2.794a2.582 2.582 0 0 1 3 .289L52.1 61.457a1.346 1.346 0 0 1-.9 2.347zm23.864-14.531l-21.077 10.54c-.068-.073-.14-.142-.215-.209L43.2 50.087a5.035 5.035 0 0 0-5.963-.577L32.58 52.3a1.687 1.687 0 0 1-2.555-1.449v-.247a1.679 1.679 0 0 1 .933-1.51l6.979-3.489a5.437 5.437 0 0 1 3.9-.362l7.863 2.25 1.9.048 23.464-12.349zm0 0" transform="translate(0 0)"/>
</svg>
