<svg xmlns="http://www.w3.org/2000/svg" width="38.14" height="38.14" viewBox="0 0 38.14 38.14">
    <path fill="#fff" d="M12.17 21.006A32.1 32.1 0 0 0 26.134 34.97l4.666-4.662a2.107 2.107 0 0 1 2.161-.509 24.17 24.17 0 0 0 7.564 1.208 2.125 2.125 0 0 1 2.119 2.119v7.395a2.125 2.125 0 0 1-2.119 2.119A36.018 36.018 0 0 1 4.5 6.619 2.125 2.125 0 0 1 6.619 4.5h7.416a2.125 2.125 0 0 1 2.119 2.119 24.071 24.071 0 0 0 1.208 7.564 2.126 2.126 0 0 1-.53 2.161l-4.662 4.662z" transform="translate(-4.5 -4.5)"/>
</svg>
