<svg xmlns="http://www.w3.org/2000/svg" width="49.308" height="49.308" viewBox="0 0 49.308 49.308">
    <defs>
        <style>
            .cls-1{fill:#fff}
        </style>
    </defs>
    <g id="seo" transform="translate(-2 -2)">
        <path id="Path_87" d="M57.977 25.04a.7.7 0 0 1-.688-.558 19.237 19.237 0 0 0-14.8-14.8.7.7 0 1 1 .292-1.382 20.646 20.646 0 0 1 15.886 15.889.7.7 0 0 1-.69.851z" class="cls-1" transform="translate(-11.803 -1.859)"/>
        <path id="Path_88" d="M24.336 58.682a.7.7 0 0 1-.147-.015A20.646 20.646 0 0 1 8.3 42.781a.7.7 0 1 1 1.378-.293 19.237 19.237 0 0 0 14.8 14.8.7.7 0 0 1-.146 1.393z" class="cls-1" transform="translate(-1.859 -11.803)"/>
        <path id="Path_89" d="M42.634 58.682a.7.7 0 0 1-.146-1.393 19.237 19.237 0 0 0 14.8-14.8.7.7 0 1 1 1.378.293 20.646 20.646 0 0 1-15.885 15.885.7.7 0 0 1-.147.015z" class="cls-1" transform="translate(-11.803 -11.803)"/>
        <path id="Path_90" d="M8.993 25.04a.7.7 0 0 1-.69-.851A20.646 20.646 0 0 1 24.189 8.3a.7.7 0 1 1 .293 1.378 19.237 19.237 0 0 0-14.8 14.8.7.7 0 0 1-.689.562z" class="cls-1" transform="translate(-1.859 -1.859)"/>
        <path id="Path_91" d="M63 39.841a4.9 4.9 0 1 1 4.9-4.9 4.9 4.9 0 0 1-4.9 4.9zm0-8.382a3.487 3.487 0 1 0 3.487 3.487A3.487 3.487 0 0 0 63 31.459z" class="cls-1" transform="translate(-16.583 -8.291)"/>
        <path id="Path_92" d="M6.9 39.841a4.9 4.9 0 1 1 4.9-4.9 4.9 4.9 0 0 1-4.9 4.9zm0-8.382a3.487 3.487 0 1 0 3.487 3.487A3.487 3.487 0 0 0 6.9 31.459z" class="cls-1" transform="translate(0 -8.291)"/>
        <path id="Path_93" d="M34.946 67.891a4.9 4.9 0 1 1 4.9-4.9 4.9 4.9 0 0 1-4.9 4.9zm0-8.382A3.487 3.487 0 1 0 38.432 63a3.487 3.487 0 0 0-3.487-3.487z" class="cls-1" transform="translate(-8.291 -16.583)"/>
        <path id="Path_94" d="M34.946 11.791a4.9 4.9 0 1 1 4.9-4.9 4.9 4.9 0 0 1-4.9 4.9zm0-8.382A3.487 3.487 0 1 0 38.432 6.9a3.487 3.487 0 0 0-3.487-3.487z" class="cls-1" transform="translate(-8.291)"/>
        <path id="Path_95" d="M32.336 54.3a.662.662 0 0 1-.141-.015A12.679 12.679 0 0 1 30 53.627a.7.7 0 1 1 .528-1.306 11.258 11.258 0 0 0 1.949.583.7.7 0 0 1-.141 1.395z" class="cls-1" transform="translate(-8.147 -14.86)"/>
        <path id="Path_96" d="M40.674 40.516a.7.7 0 0 1-.523-1.176 11.623 11.623 0 1 0-17.24 0 .7.7 0 1 1-1.047.943 13.031 13.031 0 1 1 19.333 0 .7.7 0 0 1-.524.233z" class="cls-1" transform="translate(-4.877 -4.881)"/>
        <path id="Path_97" d="M40.2 54.3a.7.7 0 0 1-.136-1.4 11.271 11.271 0 0 0 1.943-.578.7.7 0 0 1 .518 1.311 12.714 12.714 0 0 1-2.184.649.708.708 0 0 1-.141.018z" class="cls-1" transform="translate(-11.085 -14.862)"/>
        <path id="Path_98" d="M27.778 38.448a2.217 2.217 0 0 1-1.528-.458 1.6 1.6 0 0 1-.533-1.177h.616a1 1 0 0 0 .45.8 1.743 1.743 0 0 0 .967.259 1.526 1.526 0 0 0 .866-.22.688.688 0 0 0 .328-.6.611.611 0 0 0-.34-.58 4.9 4.9 0 0 0-1.169-.357 2.7 2.7 0 0 1-1.19-.493 1.049 1.049 0 0 1-.361-.834 1.18 1.18 0 0 1 .469-.963 1.943 1.943 0 0 1 1.248-.375 2.131 2.131 0 0 1 1.319.379 1.343 1.343 0 0 1 .53 1.071h-.62q-.1-.877-1.2-.877a1.446 1.446 0 0 0-.827.2.618.618 0 0 0-.294.534.5.5 0 0 0 .236.454 2.97 2.97 0 0 0 .88.294 8.288 8.288 0 0 1 1.023.282 1.638 1.638 0 0 1 .649.43 1.108 1.108 0 0 1 .27.783 1.291 1.291 0 0 1-.493 1.035 1.959 1.959 0 0 1-1.3.414z" class="cls-1" transform="translate(-7.011 -9.295)"/>
        <path id="Path_99" d="M27.7 38.553a2.391 2.391 0 0 1-1.646-.5 1.779 1.779 0 0 1-.59-1.3.174.174 0 0 1 .049-.128.176.176 0 0 1 .127-.054h.616a.175.175 0 0 1 .175.161.827.827 0 0 0 .37.667 1.584 1.584 0 0 0 .872.231 1.36 1.36 0 0 0 .767-.192.51.51 0 0 0 .25-.454.439.439 0 0 0-.247-.423 4.781 4.781 0 0 0-1.122-.34 2.836 2.836 0 0 1-1.268-.528 1.224 1.224 0 0 1-.423-.967 1.35 1.35 0 0 1 .535-1.1 2.119 2.119 0 0 1 1.362-.421 2.308 2.308 0 0 1 1.424.415 1.514 1.514 0 0 1 .6 1.205.176.176 0 0 1-.176.184h-.623a.176.176 0 0 1-.175-.157c-.034-.309-.177-.72-1.025-.72a1.294 1.294 0 0 0-.728.17.442.442 0 0 0-.217.389.329.329 0 0 0 .155.306 2.747 2.747 0 0 0 .823.27 8.454 8.454 0 0 1 1.046.287 1.82 1.82 0 0 1 .718.475 1.279 1.279 0 0 1 .318.9 1.464 1.464 0 0 1-.564 1.171 2.139 2.139 0 0 1-1.403.453zm-1.869-1.637a1.386 1.386 0 0 0 .459.871 2.062 2.062 0 0 0 1.41.413 1.8 1.8 0 0 0 1.181-.371 1.113 1.113 0 0 0 .433-.9.933.933 0 0 0-.223-.664 1.479 1.479 0 0 0-.581-.385 8.23 8.23 0 0 0-1-.273 3.1 3.1 0 0 1-.938-.317.682.682 0 0 1-.317-.6.8.8 0 0 1 .371-.68 1.624 1.624 0 0 1 .926-.232c.929 0 1.253.446 1.35.877h.282a1.122 1.122 0 0 0-.443-.755 1.972 1.972 0 0 0-1.21-.345 1.775 1.775 0 0 0-1.138.337 1 1 0 0 0-.4.825.873.873 0 0 0 .3.7 2.549 2.549 0 0 0 1.111.45 4.958 4.958 0 0 1 1.215.375.788.788 0 0 1 .433.735.869.869 0 0 1-.405.746 1.706 1.706 0 0 1-.964.251 1.926 1.926 0 0 1-1.063-.287 1.134 1.134 0 0 1-.507-.771z" class="cls-1" transform="translate(-6.937 -9.222)"/>
        <path id="Path_100" d="M37.648 38.4h-3.6v-4.83h3.49v.573h-2.853v1.479h2.667v.578h-2.667v1.635h2.963z" class="cls-1" transform="translate(-9.472 -9.332)"/>
        <path id="Path_101" d="M37.574 38.5h-3.6a.176.176 0 0 1-.176-.176V33.5a.176.176 0 0 1 .176-.176h3.49a.175.175 0 0 1 .176.176v.573a.175.175 0 0 1-.176.176h-2.679v1.127h2.49a.176.176 0 0 1 .176.176v.575a.176.176 0 0 1-.176.176h-2.49v1.283h2.789a.176.176 0 0 1 .176.176v.573a.176.176 0 0 1-.176.165zm-3.427-.352H37.4v-.221h-2.789a.175.175 0 0 1-.176-.176v-1.627a.175.175 0 0 1 .176-.176H37.1v-.225h-2.49a.175.175 0 0 1-.176-.176v-1.48a.175.175 0 0 1 .176-.176h2.677v-.218h-3.136z" class="cls-1" transform="translate(-9.398 -9.258)"/>
        <path id="Path_102" d="M44.033 33.452a2.184 2.184 0 0 1 1.662.685 2.868 2.868 0 0 1 0 3.626 2.363 2.363 0 0 1-3.33 0 2.854 2.854 0 0 1 0-3.625 2.2 2.2 0 0 1 1.668-.686zm0 4.45a1.526 1.526 0 0 0 1.188-.514 2.465 2.465 0 0 0 0-2.874 1.51 1.51 0 0 0-1.18-.514 1.541 1.541 0 0 0-1.2.514 2.448 2.448 0 0 0 0 2.873 1.523 1.523 0 0 0 1.188.513z" class="cls-1" transform="translate(-11.74 -9.297)"/>
        <path id="Path_103" d="M43.96 38.555a2.371 2.371 0 0 1-1.8-.742 3.029 3.029 0 0 1 0-3.866 2.54 2.54 0 0 1 3.585 0 3.041 3.041 0 0 1 0 3.867 2.361 2.361 0 0 1-1.79.742zm0-5a2.01 2.01 0 0 0-1.54.63 2.677 2.677 0 0 0 0 3.381 2.184 2.184 0 0 0 3.073 0 2.692 2.692 0 0 0 0-3.381 2 2 0 0 0-1.533-.635zm0 4.448a1.7 1.7 0 0 1-1.314-.574 2.62 2.62 0 0 1 0-3.109 1.715 1.715 0 0 1 1.326-.573 1.691 1.691 0 0 1 1.307.573 2.639 2.639 0 0 1 0 3.111 1.705 1.705 0 0 1-1.323.575zm.013-3.9a1.363 1.363 0 0 0-1.065.456 2.281 2.281 0 0 0 0 2.637 1.447 1.447 0 0 0 2.113 0 2.3 2.3 0 0 0 0-2.639 1.331 1.331 0 0 0-1.05-.454z" class="cls-1" transform="translate(-11.666 -9.224)"/>
    </g>
</svg>
