<svg xmlns="http://www.w3.org/2000/svg" width="44.615" height="46.452" viewBox="0 0 44.615 46.452">
    <defs>
        <style>
            .cls-1{fill:#fff}
        </style>
    </defs>
    <g id="ux" transform="translate(-10.125)">
        <path id="Path_121" d="M90.043 10.842A2.545 2.545 0 0 0 87.5 8.3H75.4V1.948A1.95 1.95 0 0 0 73.448 0h-17.24a1.95 1.95 0 0 0-1.948 1.948V20.11h-4.63a.68.68 0 1 0 0 1.359h4.63v1.446h-4.63a.68.68 0 1 0 0 1.359h4.63v.265a.68.68 0 1 0 1.359 0v-.265h3.665a.68.68 0 1 0 0-1.359h-3.665V21.47h3.665a.68.68 0 1 0 0-1.359h-3.665V1.948a.59.59 0 0 1 .589-.589h17.24a.59.59 0 0 1 .589.589V8.3h-1.7V3.98A1.046 1.046 0 0 0 71.3 2.938H58.361a1.045 1.045 0 0 0-1.042 1.042v9.22a1.046 1.046 0 0 0 1.042 1.042h7.569a.68.68 0 0 0 0-1.359h-5.843l4.742-3.453 4.078 2.97v17.726h-12.7a.59.59 0 0 1-.589-.589v-1.644a.68.68 0 1 0-1.359 0v1.643a1.95 1.95 0 0 0 1.948 1.948h12.7V43.91a2.545 2.545 0 0 0 2.542 2.542H87.5a2.545 2.545 0 0 0 2.542-2.542V28.477a.68.68 0 1 0-1.359 0v9.714H70.265V15.112h18.419v9.869a.68.68 0 1 0 1.359 0zM69.57 4.3l-4.742 3.451L60.086 4.3zm-10.892 7.929V4.953l5 3.638zm12.3-7.275v3.39a2.546 2.546 0 0 0-2.069 2.378l-2.926-2.131zm17.706 34.6v4.36a1.184 1.184 0 0 1-1.184 1.179H71.448a1.184 1.184 0 0 1-1.183-1.183v-4.36zm-18.418-25.8v-2.912a1.184 1.184 0 0 1 1.183-1.183H87.5a1.184 1.184 0 0 1 1.183 1.183v2.911z" class="cls-1" transform="translate(-35.302)"/>
        <circle id="Ellipse_20" cx="1.22" cy="1.22" r="1.22" class="cls-1" transform="translate(42.953 41.241)"/>
        <path id="Path_122" d="M363.457 25.757h7.278a.68.68 0 1 0 0-1.359h-7.278a.68.68 0 1 0 0 1.359z" class="cls-1" transform="translate(-320.656 -22.184)"/>
        <path id="Path_123" d="M363.457 57.3h2.592a.68.68 0 1 0 0-1.359h-2.592a.68.68 0 1 0 0 1.359z" class="cls-1" transform="translate(-320.656 -50.867)"/>
        <path id="Path_124" d="M11.7 151.513l1.183-1.366a.68.68 0 1 0-1.027-.89l-1.569 1.811a.68.68 0 0 0 0 .89l1.569 1.811a.68.68 0 0 0 1.027-.89z" class="cls-1" transform="translate(0 -135.502)"/>
        <path id="Path_125" d="M59.479 153.837a.68.68 0 0 0 .959-.069l1.569-1.811a.68.68 0 0 0 0-.89l-1.569-1.811a.68.68 0 0 0-1.027.89l1.183 1.366-1.184 1.367a.68.68 0 0 0 .069.958z" class="cls-1" transform="translate(-44.663 -135.501)"/>
        <path id="Path_126" d="M329.072 337.89a.811.811 0 0 1 .616.29 2.11 2.11 0 0 0 1.5.616.68.68 0 0 0 0-1.359.811.811 0 0 1-.616-.29 2.133 2.133 0 0 0-3 0 .8.8 0 0 1-1.232 0 2.133 2.133 0 0 0-3 0 .8.8 0 0 1-1.231 0 2.109 2.109 0 0 0-1.5-.616.68.68 0 0 0 0 1.359.81.81 0 0 1 .616.29 2.133 2.133 0 0 0 3 0 .8.8 0 0 1 1.231 0 2.133 2.133 0 0 0 3 0 .81.81 0 0 1 .616-.29z" class="cls-1" transform="translate(-281.697 -305.999)"/>
        <path id="Path_127" d="M326.34 369.873a2.133 2.133 0 0 0-3 0 .8.8 0 0 1-1.231 0 2.11 2.11 0 0 0-1.5-.616.68.68 0 0 0 0 1.359.81.81 0 0 1 .616.29 2.133 2.133 0 0 0 3 0 .8.8 0 0 1 1.231 0 2.109 2.109 0 0 0 1.5.616.68.68 0 1 0 0-1.359.81.81 0 0 1-.616-.29z" class="cls-1" transform="translate(-281.697 -335.755)"/>
        <path id="Path_128" d="M188.216 223.016a.68.68 0 1 0 0-1.359h-3.4a.68.68 0 0 0 0 1.359z" class="cls-1" transform="translate(-158.227 -201.547)"/>
        <path id="Path_129" d="M313.367 188.874a5.716 5.716 0 0 0-5.054 3.055l-2.385.252a.362.362 0 0 0-.2.637l1.693 1.437-1.693 1.437a.362.362 0 0 0 .2.637l2.075.219a5.712 5.712 0 1 0 5.364-7.674zm0 10.062a4.351 4.351 0 1 1 4.351-4.351 4.356 4.356 0 0 1-4.351 4.351z" class="cls-1" transform="translate(-268.67 -171.738)"/>
        <circle id="Ellipse_21" cx="1.032" cy="1.032" r="1.032" class="cls-1" transform="translate(42.045 21.476) rotate(-13.3)"/>
    </g>
</svg>
