<svg xmlns="http://www.w3.org/2000/svg" width="45.167" height="48.847" viewBox="0 0 45.167 48.847">
    <defs>
        <style>
            .cls-1{fill:#fff}
        </style>
    </defs>
    <g id="video-game" transform="translate(-19.288)">
        <path id="Path_130" d="M173.265 41.435a.716.716 0 0 0 0-1.431h-7.614a.716.716 0 0 0 0 1.431z" class="cls-1" transform="translate(-131.752 -36.187)"/>
        <path id="Path_131" d="M63.291 19.444l-2.753-2.754a3.982 3.982 0 0 0-4.414-.83V6.533A6.54 6.54 0 0 0 49.591 0h-23.77a6.541 6.541 0 0 0-6.533 6.533v35.78a6.541 6.541 0 0 0 6.533 6.533h1.868a.716.716 0 1 0 0-1.431h-1.868a5.108 5.108 0 0 1-5.1-5.1V6.533a5.108 5.108 0 0 1 5.1-5.1h23.77a5.108 5.108 0 0 1 5.1 5.1v10.376l-.737.737a2.718 2.718 0 0 0-1.647-.338V7.85a4.038 4.038 0 0 0-4.033-4.033h-3.24a.716.716 0 0 0-.716.716v.156A2.719 2.719 0 0 1 41.6 7.4h-7.8a2.719 2.719 0 0 1-2.716-2.716v-.152a.716.716 0 0 0-.716-.716h-3.231A4.038 4.038 0 0 0 23.1 7.85V41a4.038 4.038 0 0 0 4.033 4.033h21.142A4.038 4.038 0 0 0 52.308 41v-4.946l2.385-2.385v8.644a5.107 5.107 0 0 1-5.1 5.1H30.551a.716.716 0 1 0 0 1.431h19.04a6.54 6.54 0 0 0 6.532-6.533V32.239l2.514-2.514a2.711 2.711 0 0 0 3.7-3.7l.956-.956a3.983 3.983 0 0 0 0-5.627zm-21.158 17.44l.219-1.368 2.114 2.114-1.368.219a.842.842 0 0 1-.965-.964zm4.078.466l-3.579-3.579.306-1.913a4.327 4.327 0 0 1 .953-2.1c.022.02.045.039.067.061a1.477 1.477 0 0 1 0 2.089.715.715 0 0 0 1.012 1.012 1.477 1.477 0 0 1 2.089 2.089.715.715 0 0 0 1.012 1.012 1.479 1.479 0 0 1 2.089 0c.021.021.041.044.061.067a4.336 4.336 0 0 1-2.1.953zm2.62-4.11a2.907 2.907 0 0 0-2.091-2.088l6.594-6.594 2.089 2.089zm-.556 10.36H27.137a2.605 2.605 0 0 1-2.6-2.6V7.85a2.605 2.605 0 0 1 2.6-2.6H29.7a4.153 4.153 0 0 0 4.109 3.587h7.8a4.153 4.153 0 0 0 4.109-3.587h2.562a2.605 2.605 0 0 1 2.6 2.6v10.067c-.063.052-.124.107-.183.166a2.716 2.716 0 0 0-.437 3.262l-1.869 1.869a.715.715 0 0 0 1.009 1.012l1.8-1.8 1.121 1.121-6.591 6.592a2.89 2.89 0 0 0-.76-1.329l-.079-.075 2.485-2.485a.715.715 0 0 0-1.012-1.012l-3.216 3.216a5.754 5.754 0 0 0-1.623 3.179l-.805 5.025a2.273 2.273 0 0 0 2.6 2.6l5.026-.8a5.761 5.761 0 0 0 2.531-1.058V41a2.605 2.605 0 0 1-2.6 2.6zm2.972-8.508l-.075-.079a2.89 2.89 0 0 0-1.33-.758l6.594-6.594 1.122 1.122zm9.639-6.816a1.282 1.282 0 0 1-1.812 0l-7.368-7.368a1.281 1.281 0 0 1 1.812-1.808l7.368 7.368a1.282 1.282 0 0 1 0 1.807zm1.393-4.217l-.887.887-6.356-6.356.887-.887a2.548 2.548 0 0 1 3.6 0l2.753 2.753a2.551 2.551 0 0 1 .003 3.602z" class="cls-1"/>
        <path id="Path_132" d="M148.428 170.233a.715.715 0 0 0-1.012 0l-3.083 3.083a.715.715 0 0 0 0 1.012l3.083 3.083a.715.715 0 0 0 1.012-1.012l-2.577-2.577 2.577-2.577a.715.715 0 0 0 0-1.012z" class="cls-1" transform="translate(-112.925 -153.802)"/>
        <path id="Path_133" d="M255.517 177.411a.715.715 0 0 0 1.012 0l3.083-3.083a.715.715 0 0 0 0-1.012l-3.083-3.083a.716.716 0 0 0-1.012 1.012l2.577 2.577-2.577 2.577a.716.716 0 0 0 0 1.012z" class="cls-1" transform="translate(-213.502 -153.802)"/>
        <path id="Path_134" d="M204.014 145.867a.716.716 0 0 0-.864.527l-2.616 10.779a.716.716 0 1 0 1.391.338l2.616-10.779a.716.716 0 0 0-.527-.865z" class="cls-1" transform="translate(-163.936 -131.932)"/>
    </g>
</svg>
