<svg xmlns="http://www.w3.org/2000/svg" id="cloud-server-system-marketing-seo" width="44.171" height="44.159" viewBox="0 0 44.171 44.159">
    <defs>
        <style>
            .cls-1{fill:#fff}
        </style>
    </defs>
    <path id="Path_40" d="M26.944 27a2.944 2.944 0 1 0 2.944 2.944A2.944 2.944 0 0 0 26.944 27zm0 4.416a1.472 1.472 0 1 1 1.472-1.472 1.472 1.472 0 0 1-1.472 1.472z" class="cls-1" transform="translate(-7.802 -8.601)"/>
    <path id="Path_41" d="M39.944 17.888A2.944 2.944 0 1 0 37 14.944a2.944 2.944 0 0 0 2.944 2.944zm0-4.416a1.472 1.472 0 1 1-1.472 1.472 1.472 1.472 0 0 1 1.472-1.472z" class="cls-1" transform="translate(-11.235 -4.64)"/>
    <path id="Path_42" d="M32.558 15.81l.492.123-.261.435a.736.736 0 0 0 .111.9l2.081 2.082a.736.736 0 0 0 .9.111l.435-.261.123.492a.736.736 0 0 0 .714.558H40.1a.736.736 0 0 0 .714-.558l.123-.492.435.261a.736.736 0 0 0 .9-.111l2.081-2.082a.736.736 0 0 0 .111-.9l-.261-.435.492-.123a.736.736 0 0 0 .558-.714v-2.944a.736.736 0 0 0-.558-.714l-.492-.123.261-.435a.736.736 0 0 0-.111-.9L42.267 7.9a.736.736 0 0 0-.9-.111l-.435.261-.123-.492A.736.736 0 0 0 40.1 7h-2.948a.736.736 0 0 0-.714.558l-.123.492-.435-.261a.736.736 0 0 0-.9.111L32.9 9.981a.736.736 0 0 0-.111.9l.261.435-.492.123a.736.736 0 0 0-.558.714V15.1a.736.736 0 0 0 .558.714zm.914-3.083l.9-.221a.736.736 0 0 0 .453-1.093l-.476-.793 1.27-1.27.793.476a.736.736 0 0 0 1.088-.452l.221-.9h1.794l.221.9a.736.736 0 0 0 1.093.453l.793-.476 1.27 1.27-.476.793a.736.736 0 0 0 .453 1.093l.9.221v1.794l-.9.221a.736.736 0 0 0-.453 1.093l.476.793-1.27 1.27-.793-.477a.736.736 0 0 0-1.093.453l-.221.9h-1.788l-.221-.9a.736.736 0 0 0-1.093-.453l-.793.477-1.27-1.27.476-.793a.736.736 0 0 0-.453-1.093l-.9-.221z" class="cls-1" transform="translate(-9.914 -3.32)"/>
    <path id="Path_43" d="M43.949 33.647a2.215 2.215 0 0 0-2.075 1.472h-2.34a.736.736 0 0 1-.736-.736v-5.152h1.472a5.888 5.888 0 1 0 0-11.776h-.648a10.3 10.3 0 1 0-18.79-8.066A8.1 8.1 0 0 0 7.459 17.47a5.888 5.888 0 0 0-1.317 11.5 7.434 7.434 0 0 0 .427 1h-.155a4.416 4.416 0 1 0 0 8.832H12.3v3.68a.736.736 0 0 1-.736.736H6.281a2.208 2.208 0 1 0 0 1.472h5.284a2.215 2.215 0 0 0 2.208-2.208V38.8h9.568v2.208a2.215 2.215 0 0 0 2.208 2.208h13.38a2.208 2.208 0 1 0 0-1.472h-13.38a.736.736 0 0 1-.736-.736V38.8h6.624a4.416 4.416 0 0 0 .442-8.81 3.174 3.174 0 0 0 .258-.758h5.189v5.152a2.215 2.215 0 0 0 2.208 2.208h2.34a2.208 2.208 0 1 0 2.075-2.944zM4.206 44.687a.736.736 0 1 1 .736-.736.736.736 0 0 1-.736.736zM41 41.743a.736.736 0 1 1-.736.736.736.736 0 0 1 .736-.736zm-6.624-7.36a2.944 2.944 0 0 1-2.944 2.944H6.414a2.944 2.944 0 1 1 0-5.888h1.479a.736.736 0 0 0 .589-1.178A6.611 6.611 0 0 1 15.3 19.847a.724.724 0 0 0-.007.751l.265.434-.493.125a.736.736 0 0 0-.559.714v2.944a.736.736 0 0 0 .559.714l.493.125-.265.434a.736.736 0 0 0 .11.9l2.083 2.083a.736.736 0 0 0 .9.11l.434-.265.125.493a.736.736 0 0 0 .714.559h2.944a.736.736 0 0 0 .714-.559l.125-.493.434.265a.736.736 0 0 0 .9-.11l2.083-2.083a.736.736 0 0 0 .11-.9l-.265-.434.493-.125a.736.736 0 0 0 .559-.714v-.361a4.807 4.807 0 0 1 2.944 4.409 2.258 2.258 0 0 1-.346.861 5.085 5.085 0 0 0-.346.729.762.762 0 0 0 .088.677.746.746 0 0 0 .6.309h.736a2.944 2.944 0 0 1 2.944 2.944zm-17.04-13.255l-.478-.795 1.266-1.266.795.471a.728.728 0 0 0 .662.052.741.741 0 0 0 .434-.5l.221-.9h1.8l.221.9a.741.741 0 0 0 .434.5.728.728 0 0 0 .662-.052l.795-.471 1.266 1.266-.478.795a.75.75 0 0 0-.044.662.741.741 0 0 0 .5.434l.9.221v1.8l-.9.221a.741.741 0 0 0-.5.434.75.75 0 0 0 .044.662l.478.795-1.266 1.266-.795-.471a.728.728 0 0 0-.662-.052.741.741 0 0 0-.434.5l-.221.9h-1.8l-.221-.9a.741.741 0 0 0-.434-.5.728.728 0 0 0-.662.052l-.795.471-1.266-1.266.478-.795a.75.75 0 0 0 .044-.662.741.741 0 0 0-.5-.434l-.9-.221v-1.8l.9-.221a.741.741 0 0 0 .5-.434.75.75 0 0 0-.044-.662zm14.734 6.631a6.285 6.285 0 0 0-4.313-4.872v-1.016a.736.736 0 0 0-.559-.714l-.493-.125.265-.434a.736.736 0 0 0-.11-.9l-2.083-2.083a.745.745 0 0 0-.9-.11l-.434.265-.125-.493a.736.736 0 0 0-.714-.559h-2.943a.736.736 0 0 0-.714.559l-.125.493-.434-.265a.745.745 0 0 0-.9.11l-1.038 1.038a8.077 8.077 0 0 0-10.772 7.634c0 .3.022.6.052.905a4.416 4.416 0 0 1 2.156-8.265H8.5a.746.746 0 0 0 .618-.331.761.761 0 0 0 .059-.7 6.438 6.438 0 0 1-.559-2.65 6.624 6.624 0 0 1 12.022-3.84.734.734 0 0 0 1.325-.324A8.826 8.826 0 0 1 39.533 12.3a8.7 8.7 0 0 1-1.884 5.432.736.736 0 0 0 .581 1.192h2.039a4.416 4.416 0 1 1 0 8.832zm11.879 8.832a.736.736 0 1 1 .736-.736.736.736 0 0 1-.736.736z" class="cls-1" transform="translate(-1.992 -2)"/>
    <path id="Path_44" d="M56 30h1.472v1.472H56z" class="cls-1" transform="translate(-16.251 -9.393)"/>
    <path id="Path_45" d="M46 30h5.888v1.472H46z" class="cls-1" transform="translate(-13.611 -9.393)"/>
    <path id="Path_46" d="M42 30h1.472v1.472H42z" class="cls-1" transform="translate(-12.555 -9.393)"/>
    <path id="Path_47" d="M42 45h1.472v1.472H42z" class="cls-1" transform="translate(-12.555 -13.353)"/>
    <path id="Path_48" d="M10 45h22.079v1.472H10z" class="cls-1" transform="translate(-4.106 -13.353)"/>
    <path id="Path_49" d="M6 45h1.472v1.472H6z" class="cls-1" transform="translate(-3.05 -13.353)"/>
</svg>
