<svg xmlns="http://www.w3.org/2000/svg" id="learning" width="41.913" height="41.913" viewBox="0 0 41.913 41.913">
    <defs>
        <style>
            .cls-1{fill:#fff}
        </style>
    </defs>
    <path id="Path_71" d="M41.809 4.8V2.352h1.352V1H29.64v1.352h1.352V4.8l.374.187c.049.024.559.276 1.291.561a4.726 4.726 0 0 0 1.1 6.812 6.77 6.77 0 0 0-4.114 6.219v4.056a2.707 2.707 0 0 0 2.7 2.7v8.112H11.228l-9.464 4.734 9.464 4.732h27.2a4.728 4.728 0 0 0 2.028-9v-8.576a2.707 2.707 0 0 0 2.7-2.7v-4.061a6.77 6.77 0 0 0-4.114-6.219 4.726 4.726 0 0 0 1.1-6.812c.731-.285 1.242-.537 1.291-.561zM6.656 39.115l-1.869-.934 1.869-.934zm4.056 2.028l-2.7-1.352v-3.22l2.7-1.352zm23.066-27.292l1.7 1.986-.879.879-1.145-2.67c.105-.069.212-.135.322-.2zm1.334-.521a5.219 5.219 0 0 1 2.577 0l-1.288 1.5zm-4.12 28.231H12.064v-2.7h18.928zm0-4.056H12.064V34.8h18.928zm2.7 4.056h-1.348V34.8H33.7zm8.112-3.38a3.384 3.384 0 0 1-3.38 3.38h-3.38V34.8h3.38a3.384 3.384 0 0 1 3.385 3.381zm0-19.6v4.056a1.353 1.353 0 0 1-1.352 1.352v-5.413H39.1V33.5a4.75 4.75 0 0 0-.676-.054h-1.348V22.633h-1.352v10.816H33.7V18.576h-1.356v5.408a1.353 1.353 0 0 1-1.352-1.352v-4.056a5.38 5.38 0 0 1 1.389-3.606l1.763 4.114 2.256-2.255 2.256 2.256 1.763-4.114a5.38 5.38 0 0 1 1.39 3.605zm-2.463-4.53L38.2 16.716l-.879-.88 1.7-1.986c.11.062.216.128.322.2zM36.4 11.816a3.378 3.378 0 0 1-2.358-5.8 8.811 8.811 0 0 0 2.358.391 8.811 8.811 0 0 0 2.358-.391 3.378 3.378 0 0 1-2.358 5.8zm4.056-7.867A11.587 11.587 0 0 1 36.4 5.056a11.612 11.612 0 0 1-4.056-1.107v-1.6h8.112z" class="cls-1" transform="translate(-1.248 -1)"/>
    <path id="Path_72" d="M5 5h1.352v1.352H5z" class="cls-1" transform="translate(-2.296 -2.296)"/>
    <path id="Path_73" d="M9 5h1.352v1.352H9z" class="cls-1" transform="translate(-3.592 -2.296)"/>
    <path id="Path_74" d="M13 5h1.352v1.352H13z" class="cls-1" transform="translate(-4.888 -2.296)"/>
    <path id="Path_75" d="M9.112 27.365a2.031 2.031 0 0 0 2.028 2.028h3.9l6.244 3.122v-3.122h2.028a2.031 2.031 0 0 0 2.028-2.028v-3.38h2.7V1H1v22.985h8.112zm14.872 0a.676.676 0 0 1-.676.676h-3.38v2.286l-4.573-2.286H11.14a.676.676 0 0 1-.676-.676v-5.408a.676.676 0 0 1 .676-.676h12.169a.676.676 0 0 1 .676.676zm-13.52-7.312v-6.885h1.352v6.76h-.676a2.005 2.005 0 0 0-.676.125zm5.408-.124v-4.057h1.352v4.056zm5.408 0v-9.465h1.352v9.464zM2.352 2.352h24.337v4.056H2.352zm0 20.281V7.76h24.337v14.873h-1.352v-.676a2.025 2.025 0 0 0-1.352-1.9V9.112h-4.056v10.817h-1.353V14.52H14.52v5.408h-1.352v-8.112H9.112v10.817z" class="cls-1" transform="translate(-1 -1)"/>
    <path id="Path_76" d="M17 33h10.816v1.352H17z" class="cls-1" transform="translate(-6.184 -11.367)"/>
    <path id="Path_77" d="M17 37h8.112v1.352H17z" class="cls-1" transform="translate(-6.184 -12.663)"/>
    <path id="Path_78" d="M31 37h1.352v1.352H31z" class="cls-1" transform="translate(-10.719 -12.663)"/>
    <path id="Path_79" d="M5 28.408h4.056V23H5zm1.352-4.056H7.7v2.7H6.352z" class="cls-1" transform="translate(-2.296 -8.128)"/>
</svg>
